<svg xmlns="http://www.w3.org/2000/svg" viewBox="0 0 64 64">
  <rect width="64" height="64" rx="14" fill="#0a0c0a"/>
  <path d="M5 17.5C17.4 9.1 46.6 9.1 59 17.5L56.3 25.6C43.4 21.1 20.6 21.1 7.7 25.6L5 17.5Z" fill="#d9ff63"/>
  <path fill-rule="evenodd" clip-rule="evenodd" d="M8 28.6C20.5 23.8 43.5 23.8 56 28.6V40.1C56 50.2 45.4 57 32 57S8 50.2 8 40.1V28.6ZM12 33C12 29.7 14.7 27 18 27S24 29.7 24 33V47H12V33ZM25.5 30.5C25.5 26.9 28.4 24 32 24S38.5 26.9 38.5 30.5V52.5H25.5V30.5ZM40 33C40 29.7 42.7 27 46 27S52 29.7 52 33V47H40V33Z" fill="#d9ff63"/>
</svg>
