<svg xmlns="http://www.w3.org/2000/svg" viewBox="0 0 64 64">
  <rect width="64" height="64" rx="14" fill="#0a0c0a"/>
  <path d="M5 32C5 20.4 17.1 11 32 11s27 9.4 27 21-12.1 21-27 21S5 43.6 5 32Z" fill="none" stroke="#d9ff63" stroke-width="4.5"/>
  <path d="M58 29.7 47.5 25.7C44.5 19.6 38.2 16.7 31.1 17.7 22.4 18.9 16.7 25.6 17.2 33.6 17.4 36.5 18.4 39 20.2 41.2L8.5 47.3 22.6 44.8C25.8 46.7 29.7 47.4 33.6 46.7 41.2 45.3 46 39.7 46.8 33.5L58 29.7Z" fill="#f2f4ed"/>
  <path d="M22.4 32.6C27.7 28.8 35.2 29.1 41 32.4 37.6 37.7 31.1 40.1 25.2 38.1L22.4 32.6Z" fill="#d9ff63"/>
  <circle cx="38.3" cy="24.8" r="1.8" fill="#0a0c0a"/>
</svg>
